<svg width="96" height="97" viewBox="0 0 96 97" fill="none" xmlns="http://www.w3.org/2000/svg">
<path d="M27.1528 73.7054C26.4083 74.0206 25.617 73.3679 25.7848 72.577L23.8283 72.1621L25.7848 72.577L34.9669 29.2864C35.1227 28.5519 36.0022 28.2447 36.5815 28.7225L68.1523 54.7626C68.7316 55.2403 68.5973 56.1622 67.9058 56.4549L27.1528 73.7054Z" stroke="#6F3FF5" stroke-width="4"/>
<path d="M46.9222 5.07967C47.444 4.20094 48.7923 4.57833 48.7821 5.60023L48.5988 23.8793C48.5922 24.5372 47.963 25.0096 47.3294 24.8323L38.1801 22.2714C37.5465 22.0941 37.2538 21.3637 37.5898 20.7979L46.9222 5.07967Z" fill="#FFCC00"/>
<path d="M89.2106 38.0223C90.2129 37.8229 90.8336 39.0779 90.0668 39.7534L76.3502 51.837C75.8565 52.272 75.0845 52.1198 74.7928 51.53L70.5809 43.0137C70.2892 42.4239 70.6367 41.718 71.2821 41.5896L89.2106 38.0223Z" fill="#FFCC00"/>
<path d="M71.1053 17.6928C71.9613 17.1346 73.0046 18.0684 72.5443 18.9809L64.3108 35.3016C64.0144 35.8891 63.2413 36.0352 62.751 35.5963L55.6719 29.2597C55.1817 28.8208 55.2415 28.0363 55.7927 27.6769L71.1053 17.6928Z" fill="#FFCC00"/>
</svg>
