<svg width="35" height="36" viewBox="0 0 35 36" fill="none" xmlns="http://www.w3.org/2000/svg">
<g clip-path="url(#clip0_2_61)">
<path d="M11.6931 27.9422C11.6931 28.0828 11.531 28.1953 11.3266 28.1953C11.094 28.2164 10.9319 28.1039 10.9319 27.9422C10.9319 27.8016 11.094 27.6891 11.2984 27.6891C11.5099 27.668 11.6931 27.7805 11.6931 27.9422ZM9.5011 27.6258C9.45176 27.7664 9.59273 27.9281 9.80418 27.9703C9.98743 28.0406 10.1989 27.9703 10.2412 27.8297C10.2835 27.6891 10.1495 27.5273 9.93809 27.4641C9.75484 27.4148 9.55044 27.4852 9.5011 27.6258ZM12.6164 27.5062C12.412 27.5555 12.2711 27.6891 12.2922 27.8508C12.3134 27.9914 12.4966 28.0828 12.7081 28.0336C12.9125 27.9844 13.0534 27.8508 13.0323 27.7102C13.0112 27.5766 12.8208 27.4852 12.6164 27.5062ZM17.2542 0.5625C7.47824 0.5625 0 7.96641 0 17.7187C0 25.5164 4.91971 32.1891 11.9469 34.5375C12.849 34.6992 13.1662 34.1437 13.1662 33.6867C13.1662 33.2508 13.1451 30.8461 13.1451 29.3695C13.1451 29.3695 8.21126 30.4242 7.17516 27.2742C7.17516 27.2742 6.37166 25.2281 5.21574 24.7008C5.21574 24.7008 3.60168 23.5969 5.32851 23.618C5.32851 23.618 7.08354 23.7586 8.04915 25.432C9.59273 28.1461 12.1795 27.3656 13.1874 26.9016C13.3495 25.7766 13.8076 24.9961 14.3151 24.532C10.3751 24.0961 6.39985 23.5266 6.39985 16.7625C6.39985 14.8289 6.93552 13.8586 8.06325 12.6211C7.87999 12.1641 7.28089 10.2797 8.2465 7.84687C9.7196 7.38984 13.1098 9.74531 13.1098 9.74531C14.5195 9.35156 16.0349 9.14766 17.5362 9.14766C19.0374 9.14766 20.5528 9.35156 21.9625 9.74531C21.9625 9.74531 25.3527 7.38281 26.8258 7.84687C27.7914 10.2867 27.1923 12.1641 27.0091 12.6211C28.1368 13.8656 28.8275 14.8359 28.8275 16.7625C28.8275 23.5477 24.6761 24.0891 20.7361 24.532C21.3845 25.0875 21.9343 26.1422 21.9343 27.7945C21.9343 30.1641 21.9131 33.0961 21.9131 33.6727C21.9131 34.1297 22.2374 34.6852 23.1325 34.5234C30.1808 32.1891 34.9595 25.5164 34.9595 17.7187C34.9595 7.96641 27.0302 0.5625 17.2542 0.5625ZM6.85094 24.8133C6.75931 24.8836 6.78046 25.0453 6.90028 25.1789C7.01305 25.2914 7.17516 25.3406 7.26679 25.2492C7.35842 25.1789 7.33727 25.0172 7.21745 24.8836C7.10468 24.7711 6.94257 24.7219 6.85094 24.8133ZM6.08973 24.2437C6.04039 24.3352 6.11087 24.4477 6.25184 24.518C6.36461 24.5883 6.50558 24.5672 6.55491 24.4687C6.60425 24.3773 6.53377 24.2648 6.3928 24.1945C6.25184 24.1523 6.13906 24.1734 6.08973 24.2437ZM8.37337 26.7469C8.2606 26.8383 8.30289 27.0492 8.465 27.1828C8.62711 27.3445 8.83151 27.3656 8.92314 27.2531C9.01477 27.1617 8.97248 26.9508 8.83151 26.8172C8.67645 26.6555 8.465 26.6344 8.37337 26.7469ZM7.56987 25.7133C7.4571 25.7836 7.4571 25.9664 7.56987 26.1281C7.68264 26.2898 7.87294 26.3602 7.96457 26.2898C8.07734 26.1984 8.07734 26.0156 7.96457 25.8539C7.8659 25.6922 7.68264 25.6219 7.56987 25.7133Z" fill="#6F3FF5"/>
</g>
<defs>
<clipPath id="clip0_2_61">
<rect width="34.9595" height="36" fill="white"/>
</clipPath>
</defs>
</svg>
